<svg xmlns="http://www.w3.org/2000/svg" viewBox="0 0 220.18 287.22"><defs><style>.cls-1,.cls-3{fill:none;}.cls-1,.cls-2,.cls-3{stroke:#231f20;stroke-miterlimit:10;}.cls-2{fill:#fff;}.cls-3{stroke-linecap:round;}</style></defs><g id="Layer_2" data-name="Layer 2"><g id="Layer_1-2" data-name="Layer 1"><rect class="cls-1" x="10.19" y="0.51" width="209.49" height="286.08" rx="14.05"/></g><g id="Layer_2-2" data-name="Layer 2"><circle class="cls-2" cx="28.23" cy="21.53" r="3.67"/><circle class="cls-2" cx="28.23" cy="50.85" r="3.67"/><circle class="cls-2" cx="28.23" cy="80.17" r="3.67"/><circle class="cls-2" cx="28.23" cy="109.49" r="3.67"/><circle class="cls-2" cx="28.23" cy="138.8" r="3.67"/><circle class="cls-2" cx="28.23" cy="168.12" r="3.67"/><circle class="cls-2" cx="28.23" cy="197.44" r="3.67"/><circle class="cls-2" cx="28.23" cy="226.76" r="3.67"/><circle class="cls-2" cx="28.23" cy="256.08" r="3.67"/></g><g id="Layer_3" data-name="Layer 3"><polyline class="cls-3" points="187.79 286.72 187.79 0.64 196.9 0.51 196.9 286.58"/></g><g id="Layer_4" data-name="Layer 4"><path class="cls-3" d="M10.29,19.45c-5.68.13-9.79.49-9.79.91s6.35,1,14.19,1,14.19-.43,14.19-1c0-.24-1.36-.46-3.59-.63"/><path class="cls-3" d="M25.29,22.93c2.23.17,3.59.39,3.59.64,0,.52-6.36.95-14.19.95S.5,24.09.5,23.57s4.11-.79,9.79-.91"/><path class="cls-3" d="M10.29,253.54c-5.68.13-9.79.49-9.79.91s6.35,1,14.19,1,14.19-.43,14.19-1c0-.24-1.36-.46-3.59-.63"/><path class="cls-3" d="M25.29,257c2.23.17,3.59.39,3.59.64,0,.53-6.36.95-14.19.95S.5,258.19.5,257.66s4.11-.79,9.79-.91"/><path class="cls-3" d="M10.29,48.71c-5.68.13-9.79.49-9.79.91s6.35,1,14.19,1,14.19-.43,14.19-1c0-.24-1.36-.46-3.59-.63"/><path class="cls-3" d="M25.29,52.19c2.23.17,3.59.39,3.59.64,0,.53-6.36,1-14.19,1S.5,53.36.5,52.83s4.11-.79,9.79-.91"/><path class="cls-3" d="M10.29,78c-5.68.12-9.79.48-9.79.9s6.35,1,14.19,1,14.19-.43,14.19-1c0-.24-1.36-.46-3.59-.63"/><path class="cls-3" d="M25.29,81.45c2.23.17,3.59.4,3.59.64,0,.53-6.36,1-14.19,1S.5,82.62.5,82.09s4.11-.78,9.79-.91"/><path class="cls-3" d="M10.29,107.24c-5.68.12-9.79.48-9.79.91s6.35.95,14.19.95,14.19-.43,14.19-.95c0-.25-1.36-.47-3.59-.64"/><path class="cls-3" d="M25.29,110.72c2.23.16,3.59.39,3.59.63,0,.53-6.36,1-14.19,1S.5,111.88.5,111.35s4.11-.78,9.79-.91"/><path class="cls-3" d="M10.29,136.5c-5.68.12-9.79.48-9.79.91s6.35,1,14.19,1,14.19-.42,14.19-1c0-.25-1.36-.47-3.59-.64"/><path class="cls-3" d="M25.29,140c2.23.17,3.59.39,3.59.63,0,.53-6.36,1-14.19,1S.5,141.14.5,140.61s4.11-.78,9.79-.91"/><path class="cls-3" d="M10.29,165.76c-5.68.12-9.79.48-9.79.91s6.35,1,14.19,1,14.19-.42,14.19-1c0-.24-1.36-.47-3.59-.64"/><path class="cls-3" d="M25.29,169.24c2.23.17,3.59.39,3.59.63,0,.53-6.36,1-14.19,1S.5,170.4.5,169.87s4.11-.78,9.79-.9"/><path class="cls-3" d="M10.29,195c-5.68.13-9.79.49-9.79.91s6.35,1,14.19,1,14.19-.43,14.19-1c0-.24-1.36-.47-3.59-.63"/><path class="cls-3" d="M25.29,198.5c2.23.17,3.59.39,3.59.64,0,.52-6.36,1-14.19,1S.5,199.66.5,199.14s4.11-.79,9.79-.91"/><path class="cls-3" d="M10.29,224.28c-5.68.13-9.79.49-9.79.91s6.35,1,14.19,1,14.19-.43,14.19-1c0-.24-1.36-.46-3.59-.63"/><path class="cls-3" d="M25.29,227.76c2.23.17,3.59.39,3.59.64,0,.52-6.36.95-14.19.95S.5,228.92.5,228.4s4.11-.79,9.79-.91"/></g></g></svg>